<?xml version="1.0" standalone="no"?>
<!DOCTYPE svg PUBLIC "-//W3C//DTD SVG 20010904//EN"
 "http://www.w3.org/TR/2001/REC-SVG-20010904/DTD/svg10.dtd">
<svg version="1.0" xmlns="http://www.w3.org/2000/svg"
 width="2000.000000pt" height="2000.000000pt" viewBox="0 0 2000.000000 2000.000000"
 preserveAspectRatio="xMidYMid meet">
<metadata>
Created by potrace 1.11, written by Peter Selinger 2001-2013
</metadata>
<g transform="translate(0.000000,2000.000000) scale(0.100000,-0.100000)"
fill="#000000" stroke="none">
<path d="M3855 18908 c-11 -6 -497 -285 -1080 -620 -658 -379 -1072 -623
-1092 -644 l-33 -34 0 -631 c0 -572 2 -634 17 -659 23 -40 257 -170 304 -170
28 0 257 128 1130 630 601 347 1102 641 1111 653 16 20 18 71 18 665 l0 644
-27 27 c-16 15 -78 55 -139 89 -115 64 -163 76 -209 50z m-130 -792 c40 -17
67 -64 63 -108 -3 -27 -12 -36 -60 -62 -49 -27 -60 -29 -77 -18 -32 19 -47 15
-91 -26 -42 -41 -52 -78 -24 -89 9 -3 49 1 88 11 96 22 113 21 146 -12 51 -51
49 -178 -6 -289 -56 -116 -183 -216 -272 -216 -59 0 -102 41 -109 105 -5 45
-5 45 46 76 56 35 72 38 100 21 26 -17 69 -3 108 36 31 31 44 77 25 89 -4 2
-47 -4 -95 -15 -61 -13 -93 -16 -111 -9 -79 30 -86 192 -14 334 30 60 107 136
163 162 58 28 74 29 120 10z m-468 -309 c17 -16 27 -40 30 -69 l5 -45 -57 -33
c-48 -27 -61 -31 -76 -22 -31 20 -58 14 -93 -20 -38 -36 -50 -66 -37 -87 8
-12 18 -12 68 -1 153 34 184 24 204 -65 24 -107 -19 -237 -110 -337 -115 -126
-257 -144 -300 -39 -23 55 -12 82 52 119 54 32 59 33 76 18 9 -9 27 -16 39
-16 30 0 104 60 115 93 15 47 -2 53 -85 34 -95 -22 -133 -22 -157 2 -22 22
-41 80 -41 126 0 43 26 138 51 187 29 56 112 142 162 168 55 28 119 22 154
-13z m-510 -277 c25 -15 36 -32 48 -75 9 -30 15 -63 13 -72 -3 -18 -93 -83
-114 -83 -6 0 -17 14 -24 30 -25 60 -110 24 -145 -62 -21 -52 -25 -291 -6
-326 16 -30 52 -28 91 4 36 31 56 66 65 117 6 31 15 41 61 68 30 16 59 27 64
24 14 -9 3 -81 -22 -154 -47 -139 -181 -271 -273 -271 -46 0 -85 29 -108 78
-20 42 -22 64 -22 212 0 131 4 177 19 225 66 218 237 356 353 285z"/>
<path d="M11710 17814 c0 -311 -1 -336 -17 -330 -9 4 -125 70 -258 146 -227
131 -245 140 -294 140 -64 0 -102 -20 -130 -70 l-21 -38 0 -1421 c0 -781 -2
-1421 -4 -1421 -3 0 -33 16 -67 36 -72 43 -129 52 -180 31 -20 -8 -388 -218
-818 -466 -430 -249 -788 -454 -796 -458 -11 -4 -15 3 -15 24 0 141 -125 263
-270 263 -34 0 -37 -2 -32 -25 4 -22 10 -25 43 -25 49 0 105 -23 142 -58 34
-32 60 -79 54 -96 -3 -7 -50 -20 -109 -30 -56 -10 -197 -35 -311 -57 -114 -21
-209 -39 -211 -39 -2 0 9 34 25 75 47 119 79 253 79 326 l0 66 88 18 c307 60
504 229 520 445 5 77 -8 126 -46 172 -53 63 -132 73 -247 33 -38 -14 -71 -25
-71 -25 -1 0 3 20 9 45 15 67 -7 178 -43 219 -45 49 -96 43 -251 -33 -68 -33
-153 -68 -189 -78 -96 -25 -257 -21 -485 12 -304 44 -458 28 -652 -66 -109
-54 -199 -136 -245 -226 -20 -37 -39 -82 -43 -100 l-6 -32 -31 34 c-34 40 -91
60 -140 51 -40 -7 -104 -58 -94 -74 3 -6 41 -30 84 -53 42 -23 78 -43 80 -45
2 -1 -19 -24 -46 -51 -60 -60 -117 -172 -138 -273 -21 -98 -13 -309 15 -433
49 -215 175 -498 278 -628 73 -91 230 -241 315 -302 195 -139 393 -196 592
-168 88 12 209 51 236 76 30 27 89 155 111 240 11 44 23 125 26 181 l6 101
-57 -5 c-46 -4 -65 0 -111 22 -141 70 -228 266 -185 421 36 127 191 197 307
137 37 -19 60 -42 145 -146 29 -34 69 -38 101 -8 15 14 57 27 137 41 229 43
535 102 553 107 13 4 17 0 17 -18 0 -49 -12 -64 -81 -101 -67 -37 -69 -39 -54
-60 15 -21 14 -22 -22 -33 -23 -6 -39 -18 -41 -28 -6 -31 11 -37 61 -22 l47
14 34 -61 c56 -102 54 -110 -36 -138 -40 -13 -76 -25 -80 -28 -4 -4 -9 -82
-12 -176 -8 -315 -60 -496 -155 -541 -63 -30 -206 -46 -361 -41 -80 2 -152 8
-160 11 -12 5 -42 -23 -108 -98 -51 -57 -92 -107 -92 -111 0 -3 55 -32 123
-64 67 -32 156 -78 197 -102 41 -25 127 -70 190 -101 63 -31 146 -80 184 -109
l69 -52 70 79 c199 224 327 323 496 384 164 60 286 49 415 -36 l69 -46 47 22
48 22 46 -27 c25 -15 46 -29 46 -31 0 -2 -14 -11 -32 -20 -29 -15 -30 -17 -12
-26 51 -27 59 -88 18 -137 -19 -23 -45 -37 -97 -52 -85 -26 -87 -27 -63 -41
16 -9 12 -13 -30 -38 -38 -21 -53 -25 -70 -18 -15 7 -28 6 -43 -1 -28 -16 -27
-23 11 -44 l32 -18 -49 -29 c-44 -25 -50 -27 -70 -14 -23 15 -24 15 -65 -40
-14 -18 -13 -19 5 -9 15 8 29 5 59 -13 l39 -22 -34 -21 c-19 -12 -37 -21 -41
-21 -5 0 -8 -4 -8 -10 0 -15 77 -12 110 5 27 14 32 14 62 -5 18 -11 41 -20 50
-20 10 0 32 -13 50 -29 18 -15 44 -34 57 -41 23 -12 22 -13 -35 -51 -33 -21
-67 -39 -76 -39 -10 0 -18 -3 -18 -7 1 -5 133 -84 295 -177 162 -92 295 -171
295 -175 0 -4 -18 -18 -41 -30 -33 -19 -45 -21 -64 -13 -13 6 -157 88 -320
182 l-296 172 -87 -15 c-48 -9 -127 -21 -177 -27 -106 -13 -190 -40 -263 -83
-36 -22 -50 -36 -46 -47 12 -31 124 -503 170 -714 37 -174 45 -225 37 -246 -8
-20 -5 -51 10 -121 11 -52 21 -95 22 -97 6 -7 405 156 565 231 330 156 388
186 424 222 48 47 93 119 172 267 60 114 61 118 41 131 -19 13 -18 14 26 40
25 15 48 27 52 27 4 0 14 7 23 16 14 15 14 18 -9 35 -13 10 -27 19 -31 19 -21
0 -3 21 36 43 39 22 46 23 70 10 26 -14 29 -13 77 32 39 37 55 46 72 40 12 -3
27 -7 32 -9 6 -1 28 -12 50 -23 l40 -21 -30 -17 c-24 -14 -34 -32 -53 -90 -29
-98 -29 -101 15 -75 31 18 40 20 59 9 21 -11 28 -7 73 31 28 23 51 44 51 47 0
2 -18 -6 -39 -18 l-39 -21 -41 23 -41 23 49 28 50 29 39 -25 39 -25 39 40 c21
21 33 39 27 39 -7 0 -15 -4 -18 -10 -10 -16 -35 -12 -72 11 l-35 22 48 28 48
28 35 -21 34 -22 28 34 c29 34 32 53 5 31 -11 -9 -22 -7 -50 10 -20 11 -36 24
-36 28 0 3 19 17 43 30 40 22 45 23 73 8 28 -15 31 -14 53 9 13 13 35 27 50
30 14 3 47 15 73 26 l46 21 37 -23 37 -23 -48 -28 c-27 -15 -52 -25 -56 -23
-12 7 -10 0 7 -32 8 -16 15 -46 15 -66 0 -29 4 -36 18 -36 9 1 47 -16 84 -37
l68 -39 -50 -29 c-46 -27 -51 -27 -72 -13 -37 26 -38 19 -10 -44 22 -49 31
-59 47 -56 11 3 37 -5 57 -18 l37 -22 -49 -29 -50 -29 0 -56 c0 -68 -29 -159
-75 -231 -21 -34 -30 -58 -25 -64 6 -7 -2 -18 -23 -30 -18 -10 -57 -41 -87
-69 -120 -112 -200 -167 -426 -294 -88 -49 -259 -152 -380 -229 -120 -76 -269
-169 -331 -206 -62 -38 -115 -72 -118 -76 -4 -8 247 -156 1110 -652 94 -54
501 -289 905 -522 l735 -424 5 -2104 c3 -1157 9 -2110 13 -2116 9 -15 121 -78
155 -88 27 -8 139 45 175 83 l22 24 3 1989 c1 1094 5 1989 8 1989 4 0 74 -39
158 -87 144 -84 154 -88 211 -88 l60 0 515 299 c966 560 2711 1567 2725 1573
13 4 15 -69 15 -560 l0 -565 -67 -21 c-38 -11 -97 -37 -132 -58 -85 -50 -226
-190 -287 -283 -60 -92 -95 -113 -224 -136 -232 -40 -338 -81 -419 -162 -26
-26 -55 -65 -66 -87 -29 -60 -31 -162 -6 -290 26 -134 26 -146 -1 -180 l-22
-28 24 -16 c83 -55 195 -173 231 -242 18 -37 19 -42 3 -116 -23 -117 -78 -274
-132 -379 -54 -104 -46 -107 44 -12 93 96 145 184 183 307 l17 55 21 -33 21
-33 42 128 c24 71 58 165 77 209 18 44 33 86 33 94 0 36 -116 241 -203 359
-33 43 -37 55 -27 67 7 8 16 15 21 15 22 0 201 -272 231 -350 9 -23 15 -14 76
105 89 170 139 256 233 395 104 154 184 250 209 250 33 0 23 -29 -34 -99 -67
-84 -189 -261 -251 -366 -82 -138 -245 -478 -245 -510 0 -3 31 11 70 30 96 48
239 104 405 158 200 65 224 70 240 57 22 -18 8 -36 -38 -49 -221 -63 -474
-158 -619 -232 l-97 -50 -44 -137 -44 -136 28 -63 c154 -339 100 -758 -130
-1015 l-51 -56 47 -15 c104 -33 162 -42 268 -41 90 1 125 6 190 27 143 47 263
133 377 269 92 109 148 242 148 347 l0 42 30 -16 c16 -8 41 -15 55 -15 38 0
159 73 173 105 9 18 12 123 12 361 l0 336 35 41 c109 127 111 296 5 455 l-40
60 2 1153 3 1153 160 93 c88 51 170 97 181 104 19 10 60 -11 344 -175 177
-102 332 -186 344 -186 11 1 46 16 76 34 l55 32 3 1444 c2 1433 2 1444 -18
1462 -11 10 -20 14 -20 8 0 -6 7 -13 15 -16 8 -4 12 -10 9 -15 -3 -5 -10 -6
-16 -3 -7 4 -8 2 -4 -4 4 -6 -4 -16 -16 -23 -20 -10 -22 -10 -13 2 6 8 0 4
-12 -10 l-21 -24 -164 94 c-90 51 -512 295 -938 541 l-775 447 -3 103 c-2 57
-1 112 2 123 6 24 120 89 145 82 9 -2 136 -72 280 -156 145 -83 265 -151 267
-151 2 0 4 306 4 680 0 636 -1 681 -17 678 -9 -2 -25 -11 -35 -21 -10 -10 -23
-15 -28 -12 -6 4 -10 1 -10 -4 0 -6 -5 -11 -11 -11 -6 0 -174 94 -373 209
-345 199 -1807 1043 -2271 1311 -121 69 -706 407 -1300 750 -1288 743 -1324
764 -1352 779 l-23 12 0 -337z m304 -150 c43 -24 69 -64 52 -82 -17 -16 -126
61 -126 89 0 26 19 24 74 -7z m406 -234 c118 -67 221 -130 228 -138 15 -20 16
-52 1 -52 -22 0 -491 275 -501 293 -6 13 -6 23 3 33 10 12 15 12 33 1 12 -7
118 -69 236 -137z m-304 20 c52 -29 75 -66 48 -77 -18 -7 -100 42 -114 68 -11
19 -6 39 8 39 4 0 30 -13 58 -30z m-671 -178 l260 -151 5 -1264 5 -1264 27
-34 c20 -28 425 -265 1852 -1089 l1826 -1055 0 -298 0 -299 -27 4 c-39 6
-4192 2403 -4225 2439 l-28 29 0 1564 c0 1603 0 1582 35 1571 6 -1 127 -70
270 -153z m1005 -13 c96 -56 183 -108 193 -117 18 -16 23 -47 9 -56 -10 -6
-382 208 -393 226 -13 20 -11 48 4 48 6 0 91 -46 187 -101z m-340 41 c47 -24
78 -66 62 -82 -14 -14 -118 45 -125 71 -9 37 7 39 63 11z m-94 -102 c30 -20
50 -42 52 -55 4 -28 -8 -29 -57 -3 -49 25 -71 46 -71 71 0 27 21 24 76 -13z
m496 -130 c133 -77 164 -106 140 -130 -11 -11 -378 196 -395 223 -6 9 -7 24
-4 34 8 19 1 22 259 -127z m-128 -79 c116 -67 226 -133 244 -146 33 -24 44
-63 18 -63 -24 0 -486 271 -497 291 -11 21 -5 39 13 39 6 0 105 -55 222 -121z
m586 31 c49 -28 91 -57 94 -66 8 -21 8 -89 -1 -97 -6 -7 -111 47 -165 85 -17
11 -30 32 -34 53 -6 32 1 75 13 75 3 0 45 -23 93 -50z m-864 -26 c93 -54 98
-118 6 -67 -49 27 -79 64 -67 84 9 13 11 12 61 -17z m-95 -101 c47 -25 72 -63
55 -81 -8 -7 -91 34 -112 56 -17 16 -18 52 -3 52 6 0 33 -12 60 -27z m417 -84
c215 -125 232 -136 232 -159 0 -10 -4 -21 -10 -25 -11 -7 -380 206 -394 227
-9 15 -3 48 9 48 3 0 76 -41 163 -91z m538 -30 c41 -22 81 -47 89 -55 17 -18
21 -114 5 -114 -20 0 -170 92 -185 113 -15 22 -20 78 -8 90 11 12 24 8 99 -34z
m605 -117 c151 -87 387 -223 524 -302 271 -155 315 -184 315 -205 0 -30 -24
-22 -152 51 -198 115 -353 204 -658 379 -151 87 -287 166 -302 177 -29 20 -38
58 -14 58 7 0 137 -71 287 -158z m-1169 8 c117 -68 223 -132 236 -143 24 -22
30 -57 9 -57 -22 0 -481 268 -495 289 -17 24 -6 44 18 38 10 -3 114 -60 232
-127z m1162 -241 c154 -89 287 -168 294 -177 15 -20 16 -52 1 -52 -7 0 -141
74 -299 165 -208 120 -289 172 -293 187 -6 21 -1 38 10 38 3 0 132 -73 287
-161z m-601 110 c103 -60 107 -64 107 -121 0 -31 -4 -48 -12 -48 -25 0 -177
96 -187 118 -12 26 -15 75 -4 85 11 12 23 8 96 -34z m-966 -111 c54 -31 73
-49 73 -70 0 -26 -28 -22 -82 12 -37 23 -48 36 -48 55 0 31 8 31 57 3z m1426
-158 c121 -71 157 -99 157 -126 0 -26 -29 -14 -169 66 -133 77 -162 104 -145
132 8 13 18 8 157 -72z m-443 17 l85 -52 3 -53 c4 -66 -3 -67 -109 -5 -82 48
-99 68 -99 122 0 55 12 54 120 -12z m-582 -90 c127 -74 238 -139 246 -147 17
-13 21 -46 8 -54 -13 -8 -474 260 -496 288 -17 22 -16 46 3 46 4 0 112 -60
239 -133z m-282 7 c46 -27 70 -57 59 -74 -10 -15 -21 -12 -74 20 -44 28 -68
60 -53 74 10 10 23 6 68 -20z m1993 -90 c187 -107 230 -144 187 -160 -15 -6
-343 178 -363 204 -16 20 -17 52 -1 52 6 0 86 -43 177 -96z m566 -89 c88 -51
268 -154 400 -230 698 -401 1497 -861 1548 -892 57 -34 83 -65 72 -83 -8 -12
-22 -5 -270 138 -110 63 -285 165 -390 225 -104 60 -251 144 -325 187 -346
200 -1073 618 -1140 656 -86 48 -115 76 -106 99 7 19 -8 26 211 -100z m-2187
-34 c124 -72 164 -100 168 -118 14 -52 2 -48 -250 100 -144 85 -164 102 -153
132 7 16 9 16 40 -2 17 -10 105 -61 195 -112z m1512 -54 c267 -152 323 -195
277 -213 -15 -5 -576 315 -590 337 -6 9 -7 24 -4 33 8 21 -6 28 317 -157z
m-1036 116 c45 -25 87 -53 94 -61 13 -16 17 -94 5 -105 -6 -7 -111 47 -165 85
-17 11 -30 32 -34 53 -6 33 1 75 13 75 4 0 43 -21 87 -47z m-848 -3 c52 -29
75 -66 48 -77 -18 -7 -100 42 -114 68 -11 19 -6 39 8 39 4 0 30 -13 58 -30z
m-101 -96 c45 -26 65 -58 47 -76 -18 -18 -122 53 -122 84 0 25 23 23 75 -8z
m434 -95 c97 -56 184 -108 194 -117 18 -16 23 -47 9 -56 -10 -6 -382 207 -393
226 -13 19 -11 48 3 48 6 0 91 -46 187 -101z m-50 -125 c130 -75 242 -143 249
-152 15 -20 16 -52 1 -52 -6 0 -121 63 -254 140 -174 101 -244 147 -248 162
-6 21 -1 38 10 38 3 0 112 -61 242 -136z m1014 61 c73 -42 140 -85 150 -97 21
-25 22 -48 1 -48 -27 0 -293 160 -299 181 -6 18 0 39 11 39 3 0 64 -34 137
-75z m-438 8 c44 -25 83 -51 87 -57 12 -17 9 -106 -2 -106 -20 0 -170 92 -185
113 -15 22 -20 78 -8 90 12 13 29 7 108 -40z m-859 -63 c52 -29 75 -66 48 -77
-18 -7 -100 42 -114 68 -11 19 -6 39 8 39 4 0 30 -13 58 -30z m3386 -671 c629
-364 1151 -668 1161 -677 20 -18 19 -59 -2 -54 -14 3 -2214 1273 -2283 1318
-27 17 -38 31 -38 49 0 14 4 25 9 25 6 0 524 -297 1153 -661z m-3052 480 c96
-56 183 -108 193 -117 18 -16 23 -47 9 -56 -10 -6 -382 208 -393 226 -13 20
-11 48 4 48 6 0 91 -46 187 -101z m971 0 c128 -74 159 -99 159 -128 0 -23 -36
-8 -170 69 -131 76 -161 103 -145 130 3 5 8 10 11 10 3 0 68 -36 145 -81z
m481 -36 c112 -64 213 -125 226 -136 25 -23 30 -57 8 -57 -21 0 -437 242 -449
261 -9 15 -4 49 7 49 3 0 96 -52 208 -117z m-1792 77 c47 -24 78 -66 62 -82
-14 -14 -118 45 -125 71 -9 37 7 39 63 11z m853 -21 c103 -60 107 -64 107
-121 0 -30 -4 -48 -12 -48 -6 0 -48 21 -94 46 -84 48 -104 71 -104 123 0 53
11 53 103 0z m-451 -211 c133 -77 164 -106 140 -130 -11 -11 -378 196 -395
223 -6 9 -7 24 -4 34 8 19 1 22 259 -127z m-396 76 c85 -50 83 -107 -2 -63
-49 25 -80 61 -69 79 9 15 22 12 71 -16z m1804 -172 c102 -58 195 -114 208
-125 27 -25 29 -57 5 -56 -24 1 -434 240 -446 260 -6 9 -7 24 -4 33 8 20 -10
29 237 -112z m-1923 86 c54 -31 73 -49 73 -70 0 -24 -24 -23 -69 4 -43 25 -61
46 -61 70 0 23 11 23 57 -4z m952 -15 c118 -65 121 -68 121 -124 0 -37 -4 -49
-15 -49 -29 0 -177 93 -186 118 -15 40 -10 92 9 92 3 0 35 -16 71 -37z m-501
-90 c92 -53 177 -105 190 -116 24 -23 30 -57 8 -57 -15 0 -351 193 -378 217
-22 20 -23 53 -3 53 9 0 91 -43 183 -97z m-50 -126 c127 -74 238 -139 246
-147 17 -13 21 -46 8 -54 -13 -8 -474 260 -496 288 -17 22 -16 46 3 46 4 0
112 -60 239 -133z m-382 61 c30 -20 50 -42 52 -55 4 -28 -8 -29 -57 -3 -49 25
-71 46 -71 71 0 27 21 24 76 -13z m947 -95 c45 -25 88 -53 95 -61 14 -18 16
-98 3 -107 -5 -3 -49 18 -97 47 -72 43 -90 59 -97 85 -9 30 -3 83 9 83 3 0 42
-21 87 -47z m-579 -114 c116 -67 226 -132 244 -146 32 -24 44 -63 18 -63 -24
0 -486 271 -497 291 -11 21 -5 39 13 39 6 0 106 -55 222 -121z m-264 -4 c45
-28 67 -62 52 -77 -22 -22 -132 60 -132 97 0 13 45 2 80 -20z m2988 -626 c603
-348 1109 -641 1125 -651 27 -19 39 -68 16 -68 -22 0 -2241 1284 -2250 1303
-10 17 -6 47 6 47 3 0 499 -284 1103 -631z m-1679 480 c136 -78 167 -107 143
-131 -13 -13 -278 136 -299 168 -14 22 -11 44 7 44 4 0 71 -36 149 -81z m-969
-49 c179 -103 218 -136 193 -161 -7 -7 -67 22 -199 98 -103 60 -192 116 -197
125 -11 17 -2 52 12 46 4 -2 90 -50 191 -108z m489 78 c110 -61 121 -73 121
-129 0 -27 -5 -49 -10 -49 -20 0 -170 92 -185 113 -15 22 -20 78 -8 90 11 12
24 8 82 -25z m-833 -34 c51 -30 72 -60 55 -77 -24 -24 -144 64 -126 93 9 15
22 12 71 -16z m-101 -100 c45 -26 65 -58 47 -76 -18 -18 -122 53 -122 84 0 25
23 23 75 -8z m432 -91 c92 -53 178 -105 191 -116 25 -23 30 -57 8 -57 -16 0
-351 192 -378 217 -22 19 -24 53 -4 53 8 0 90 -43 183 -97z m982 -45 c135 -79
166 -107 143 -130 -13 -13 -278 136 -299 168 -14 22 -11 44 7 44 5 0 72 -37
149 -82z m1636 -703 c1330 -767 1360 -785 1363 -816 3 -25 0 -30 -12 -26 -38
15 -2713 1561 -2723 1575 -7 9 -13 24 -13 34 0 10 6 18 13 18 6 0 624 -353
1372 -785z m-2102 724 c103 -60 107 -64 107 -121 0 -30 -4 -48 -12 -48 -6 0
-49 21 -96 47 -86 49 -102 68 -102 122 0 53 11 53 103 0z m-558 -108 c233
-135 273 -167 248 -192 -15 -15 -488 257 -503 289 -10 23 -6 42 8 42 4 0 115
-63 247 -139z m3037 -587 c540 -311 984 -567 986 -569 2 -2 2 -17 0 -34 l-3
-31 -978 563 c-538 310 -987 571 -998 580 -22 19 -26 57 -5 57 8 0 457 -255
998 -566z m-2031 445 c159 -92 193 -123 159 -144 -15 -9 -279 143 -297 171
-14 22 -11 44 6 44 5 0 64 -32 132 -71z m1662 -719 l1357 -782 0 -34 0 -34
-47 29 c-27 16 -640 369 -1363 786 -723 416 -1321 764 -1327 773 -20 25 -17
55 5 50 10 -3 629 -357 1375 -788z m-2115 728 c100 -55 112 -68 112 -123 0
-34 -4 -45 -15 -45 -31 0 -176 92 -186 117 -15 41 -10 93 9 93 2 0 38 -19 80
-42z m2109 -964 l1363 -786 0 -34 0 -33 -82 48 c-46 27 -659 380 -1363 786
-704 405 -1286 744 -1292 753 -16 20 -17 52 -1 52 6 0 625 -354 1375 -786z
m-1782 -550 l2296 -1325 70 40 c39 23 73 41 75 41 3 0 4 -110 2 -244 -3 -229
-4 -246 -24 -272 -38 -51 -71 -69 -128 -69 -50 1 -81 18 -861 468 l-810 468
-7 -60 c-7 -67 -16 -86 -50 -118 -43 -40 -562 -336 -621 -355 -81 -25 -234
-25 -316 1 -56 17 -701 380 -780 439 -87 64 -97 234 -19 309 18 18 141 94 273
171 223 129 242 142 263 183 14 28 22 61 22 94 l0 50 -816 470 c-715 411 -820
475 -843 509 l-26 39 -3 244 c-2 134 -1 243 2 243 3 0 1038 -597 2301 -1326z
m758 905 c183 -106 340 -201 350 -212 23 -26 22 -51 -2 -44 -23 6 -625 351
-668 384 -31 23 -45 63 -23 63 6 0 160 -86 343 -191z m2342 -146 c39 -24 45
-32 45 -61 l0 -32 -52 29 c-55 32 -73 53 -64 77 8 20 19 18 71 -13z m-1743
-202 c181 -105 587 -339 1598 -922 176 -101 185 -108 188 -139 l3 -33 -33 20
c-58 36 -275 161 -1103 638 -445 256 -816 473 -822 482 -17 23 -16 43 2 43 8
0 83 -40 167 -89z m1978 14 c-9 -17 -9 -28 -1 -43 6 -11 11 -33 11 -49 -1 -25
-3 -23 -25 22 -31 62 -31 82 -2 113 l22 24 3 -23 c2 -12 -2 -32 -8 -44z m117
-80 c-24 -73 -47 -125 -54 -125 -20 0 -16 20 23 143 43 132 42 131 59 117 10
-9 5 -35 -28 -135z m123 -76 c0 -15 -10 -35 -25 -49 l-25 -23 0 29 c0 17 5 35
11 41 9 9 9 20 0 44 -6 17 -11 41 -11 53 1 31 49 -62 50 -95z m-120 -189 c80
-46 197 -113 260 -150 63 -37 228 -132 365 -210 296 -170 305 -176 305 -201 0
-10 -2 -19 -5 -19 -3 0 -248 140 -545 312 -329 190 -540 319 -543 329 -5 18 1
31 12 25 3 -2 71 -41 151 -86z m258 11 c-3 -20 -5 -21 -22 -8 -13 10 -16 20
-11 36 6 21 9 22 22 8 8 -8 13 -24 11 -36z m70 -34 c3 -21 0 -26 -12 -21 -19
7 -22 58 -3 52 6 -3 13 -17 15 -31z m70 -41 c3 -20 0 -27 -10 -24 -7 3 -14 17
-16 32 -3 20 0 27 10 24 7 -3 14 -17 16 -32z m-396 -130 c79 -46 220 -127 313
-181 94 -53 173 -102 177 -109 12 -18 9 -36 -6 -36 -16 0 -611 342 -638 367
-22 19 -23 43 -3 43 8 0 78 -38 157 -84z m-40 -172 c113 -66 128 -78 128 -101
0 -22 -18 -15 -120 42 -122 68 -145 87 -137 108 4 10 9 17 11 17 3 0 56 -30
118 -66z m2 -197 c111 -63 139 -88 120 -107 -6 -6 -43 10 -114 50 -114 66
-140 86 -140 107 0 23 22 15 134 -50z m495 -89 c345 -197 371 -213 371 -238 0
-11 -5 -20 -10 -20 -19 0 -631 356 -642 374 -11 17 -9 36 3 36 7 0 132 -68
278 -152z m237 60 c105 -60 146 -89 150 -106 4 -13 4 -26 0 -29 -9 -9 -296
159 -307 180 -9 16 -5 37 8 37 3 0 70 -37 149 -82z m511 -104 c119 -69 221
-131 225 -137 10 -16 10 -37 0 -37 -9 0 -353 196 -414 236 -23 15 -38 32 -38
44 0 11 2 20 4 20 3 0 103 -57 223 -126z m-7793 45 c20 -12 36 -23 36 -25 0
-2 -20 -15 -45 -29 l-44 -27 -41 23 c-22 12 -39 24 -37 25 3 3 91 54 94 54 1
0 18 -9 37 -21z m6571 -119 c90 -52 105 -64 105 -87 0 -23 -22 -14 -133 50
-105 60 -135 86 -122 107 7 11 20 5 150 -70z m295 25 c19 -12 60 -35 90 -52
132 -72 867 -498 883 -511 19 -17 23 -52 6 -52 -17 0 -1045 595 -1073 621 -11
10 -16 24 -13 34 6 14 9 14 39 -1 18 -9 49 -27 68 -39z m-6725 14 l36 -22 -47
-28 -48 -27 -38 19 c-44 22 -42 31 10 59 46 24 44 24 87 -1z m-269 -60 c19
-11 34 -22 34 -24 0 -2 -20 -15 -45 -30 l-45 -26 -41 24 -41 25 44 25 c54 31
54 31 94 6z m399 -16 c19 -9 35 -19 35 -23 0 -3 -20 -16 -45 -30 -43 -23 -45
-24 -80 -7 -19 9 -35 21 -35 27 0 9 66 49 82 50 4 0 23 -8 43 -17z m5837 -332
l168 -96 0 -78 0 -79 -42 25 c-24 13 -181 104 -350 201 l-308 178 0 78 0 79
183 -106 c100 -58 257 -149 349 -202z m-6101 272 c16 -10 29 -20 29 -24 0 -4
-19 -18 -42 -32 l-43 -25 -37 22 c-21 11 -38 23 -38 26 0 7 73 48 88 49 8 1
27 -7 43 -16z m429 -41 c0 -4 -19 -18 -41 -30 -41 -24 -42 -24 -80 -6 -22 9
-39 21 -39 25 0 4 19 18 43 32 42 24 42 24 80 5 20 -10 37 -22 37 -26z m-630
-22 c0 -8 -78 -50 -92 -50 -7 0 -28 9 -47 21 l-34 21 48 27 48 28 39 -21 c21
-12 38 -23 38 -26z m6745 -24 c113 -66 138 -87 119 -106 -7 -7 -45 9 -125 56
-114 66 -129 78 -129 102 0 22 24 13 135 -52z m518 -102 c161 -92 304 -176
320 -186 27 -19 38 -58 16 -58 -19 0 -630 356 -641 374 -11 16 -10 36 2 36 6
0 142 -75 303 -166z m551 73 c142 -84 170 -107 150 -127 -8 -8 -49 11 -145 66
-74 42 -143 85 -153 95 -18 16 -17 50 1 48 4 0 71 -37 147 -82z m-7444 13 c0
-6 -82 -50 -94 -50 -5 0 -24 10 -43 21 l-34 21 48 28 48 28 37 -22 c21 -11 38
-23 38 -26z m-276 -11 c20 -12 36 -24 36 -28 0 -3 -20 -17 -44 -30 l-43 -24
-41 23 -42 23 48 28 c26 15 48 28 49 28 1 1 18 -8 37 -20z m726 -39 c0 -10
-67 -50 -83 -50 -7 0 -27 9 -46 21 l-34 21 48 28 48 28 33 -20 c19 -11 34 -24
34 -28z m-940 -18 c0 -4 -19 -18 -43 -31 l-43 -23 -43 22 -44 22 49 28 49 28
38 -19 c20 -11 37 -23 37 -27z m593 14 l38 -24 -47 -26 c-49 -28 -64 -27 -103
3 l-23 18 43 26 c24 14 46 26 49 26 3 0 22 -10 43 -23z m-243 -36 c22 -11 40
-22 40 -24 0 -2 -20 -16 -45 -30 l-45 -27 -41 21 c-22 12 -38 24 -35 27 6 7
79 52 84 53 1 0 21 -9 42 -20z m730 -35 c0 -3 -19 -17 -42 -31 l-41 -26 -46
22 -45 22 49 28 49 28 38 -19 c21 -11 38 -22 38 -24z m-976 2 l38 -24 -47 -27
-47 -28 -35 18 c-19 11 -37 22 -39 26 -3 5 73 57 86 58 3 0 22 -11 44 -23z
m620 -8 c20 -12 36 -22 36 -24 0 -2 -20 -15 -45 -30 l-45 -26 -40 22 c-22 13
-38 25 -35 27 9 10 80 51 87 52 4 0 23 -9 42 -21z m6661 -152 c205 -118 230
-135 233 -159 2 -16 1 -28 -3 -28 -3 0 -58 31 -123 68 -64 38 -181 106 -259
151 -151 88 -169 102 -159 127 5 13 10 13 43 -6 21 -11 142 -80 268 -153z
m-6897 113 c17 -11 32 -22 32 -24 0 -2 -20 -16 -44 -30 l-44 -26 -42 24 -41
23 43 26 c52 32 55 32 96 7z m693 -12 l39 -22 -46 -29 -47 -29 -34 19 c-19 10
-37 21 -39 25 -3 5 72 56 85 58 2 0 21 -10 42 -22z m-943 -18 c17 -11 32 -22
32 -24 0 -2 -20 -16 -44 -30 l-44 -26 -42 24 -41 23 43 26 c52 32 55 32 96 7z
m621 -7 c17 -10 31 -21 31 -24 0 -4 -19 -18 -42 -32 l-43 -25 -37 21 c-21 11
-38 23 -38 26 0 8 72 50 87 51 6 0 25 -8 42 -17z m-239 -38 c17 -9 30 -19 30
-24 0 -5 -19 -20 -41 -33 l-42 -25 -38 21 c-21 12 -39 23 -39 26 0 8 73 49 88
50 7 0 26 -7 42 -15z m699 -16 l35 -21 -47 -29 -46 -28 -41 23 -41 23 43 26
c52 32 55 32 97 6z m-948 -16 c16 -10 29 -20 29 -24 0 -4 -19 -18 -42 -32
l-43 -25 -37 22 c-21 11 -38 23 -38 26 0 8 74 49 88 50 8 0 27 -8 43 -17z
m657 -29 c6 -4 -77 -54 -90 -54 -7 0 -28 9 -47 21 l-34 21 48 28 48 28 36 -21
c20 -11 38 -22 39 -23z m-249 -33 c11 -7 5 -15 -27 -35 -50 -31 -52 -31 -97
-5 l-36 22 48 27 c50 29 57 29 112 -9z m-620 8 l35 -21 -47 -29 -46 -28 -41
23 -42 24 44 26 c52 31 54 31 97 5z m7763 -66 c73 -42 141 -83 151 -91 18 -16
23 -52 7 -52 -15 0 -287 159 -300 175 -11 13 -8 45 4 45 3 0 65 -34 138 -77z
m-7393 28 c11 -7 5 -15 -27 -35 -50 -31 -55 -32 -99 -5 l-34 21 48 28 c50 29
57 29 112 -9z m595 8 c20 -12 36 -23 36 -25 0 -2 -19 -16 -42 -30 l-42 -27
-43 23 -44 23 48 28 c26 16 49 29 50 29 1 0 18 -9 37 -21z m388 -12 l38 -22
-49 -28 -49 -27 -41 23 -41 24 47 26 c27 15 50 27 53 27 3 0 22 -10 42 -23z
m-621 -29 l39 -22 -46 -29 -47 -29 -34 19 c-19 10 -37 21 -39 25 -3 5 72 56
85 58 2 0 21 -10 42 -22z m-601 -3 c17 -9 30 -19 30 -24 0 -4 -20 -19 -44 -32
l-44 -23 -36 19 c-20 11 -36 22 -36 25 0 9 73 49 88 50 7 0 26 -7 42 -15z
m352 -28 l37 -23 -47 -28 -46 -28 -43 23 -42 23 47 27 c26 16 49 28 52 28 3 0
22 -10 42 -22z m620 -8 l41 -21 -47 -29 -46 -29 -40 20 c-22 11 -40 22 -40 25
0 4 81 55 88 55 1 0 21 -9 44 -21z m6375 -180 c164 -95 310 -181 326 -191 32
-23 38 -63 8 -55 -28 7 -613 345 -635 367 -16 16 -17 50 -2 50 3 0 140 -77
303 -171z m-7199 99 c-49 -37 -72 -41 -112 -17 -20 12 -36 23 -34 24 2 2 23
15 48 29 l44 25 39 -22 38 -21 -23 -18z m588 41 c19 -11 34 -22 34 -24 0 -2
-21 -15 -46 -29 l-46 -26 -40 24 -39 23 43 26 c53 32 53 32 94 6z m-250 -30
c19 -11 34 -22 34 -24 0 -2 -21 -15 -46 -29 l-46 -26 -39 22 c-21 12 -37 24
-34 26 11 11 81 51 89 52 5 0 24 -9 42 -21z m1034 -39 c0 -3 -20 -16 -44 -30
l-45 -24 -35 19 c-20 11 -36 23 -36 27 0 3 19 17 43 31 l42 24 38 -20 c20 -12
37 -23 37 -27z m-1248 -13 l38 -22 -50 -28 -50 -28 -40 24 -40 24 47 26 c27
15 50 27 53 27 3 0 22 -10 42 -23z m599 6 c16 -10 29 -20 29 -24 0 -4 -20 -18
-43 -32 l-44 -24 -36 21 c-20 12 -37 23 -37 26 0 8 74 49 88 50 8 0 27 -8 43
-17z m-252 -30 c17 -10 31 -21 31 -25 0 -3 -20 -17 -44 -31 l-44 -24 -36 20
c-20 12 -36 23 -36 26 0 8 72 50 87 51 6 0 25 -8 42 -17z m1004 -17 l38 -23
-46 -27 c-48 -28 -64 -28 -104 3 l-24 18 44 26 c24 14 46 25 49 26 3 0 22 -10
43 -23z m-1216 -37 l35 -22 -48 -28 -48 -27 -37 21 c-21 12 -35 25 -33 29 6
10 75 47 88 48 5 0 24 -10 43 -21z m1378 -56 c19 -9 35 -19 35 -22 0 -4 -20
-18 -45 -33 l-45 -27 -35 20 c-19 12 -35 24 -35 28 0 7 70 50 82 51 4 0 23 -8
43 -17z m-1415 -102 c0 -4 -20 -17 -45 -31 l-45 -25 -46 25 c-25 14 -47 28
-49 31 -3 3 17 18 43 32 l47 26 47 -26 c27 -15 48 -29 48 -32z m1550 24 c17
-9 30 -19 30 -23 0 -5 -18 -19 -41 -31 -40 -23 -41 -23 -80 -6 -21 10 -39 21
-39 25 0 8 72 49 88 50 7 0 26 -7 42 -15z m-282 -51 c2 -1 -17 -14 -42 -29
-41 -24 -50 -26 -76 -15 -54 22 -54 34 -3 63 l48 26 35 -21 c19 -12 36 -23 38
-24z m431 -65 c-50 -38 -73 -42 -113 -18 -20 12 -36 23 -34 24 2 2 23 15 47
28 l45 26 40 -21 40 -20 -25 -19z m5675 -156 c279 -162 338 -205 303 -219 -18
-7 -646 351 -654 373 -3 7 -2 20 1 28 7 19 -26 36 350 -182z m-6010 166 c20
-12 36 -23 36 -25 0 -2 -20 -15 -45 -29 l-44 -27 -41 23 c-22 12 -39 24 -37
25 3 3 91 54 94 54 1 0 18 -9 37 -21z m6166 -60 c140 -81 166 -103 150 -128
-6 -10 -44 7 -158 73 -137 79 -174 111 -154 130 11 11 23 5 162 -75z m-6028
-20 l41 -21 -48 -28 -49 -28 -38 19 c-44 22 -42 31 10 59 46 24 36 24 84 -1z
m329 5 c31 -16 34 -37 7 -42 -8 -2 -32 7 -52 19 -28 16 -34 24 -24 30 19 13
35 11 69 -7z m-614 -15 l35 -22 -46 -29 -47 -29 -40 25 -41 24 44 26 c52 31
52 31 95 5z m5774 -55 c63 -36 122 -73 132 -82 19 -17 23 -42 7 -42 -6 0 -68
33 -138 74 -91 53 -128 80 -130 95 -2 12 1 21 6 21 5 0 61 -30 123 -66z
m-5002 -41 c-15 -18 -22 -17 -65 9 -34 20 -35 22 -19 34 15 11 24 10 56 -8 30
-17 36 -24 28 -35z m-640 20 c17 -10 31 -20 31 -23 0 -3 -20 -17 -44 -31 l-43
-27 -37 21 c-20 12 -36 23 -36 26 0 8 72 50 87 51 6 0 25 -8 42 -17z m329 -45
c-50 -38 -74 -42 -113 -18 -20 12 -35 24 -33 25 2 2 23 15 48 29 l44 25 39
-22 38 -21 -23 -18z m423 -20 c37 -21 38 -22 19 -35 -18 -12 -25 -11 -61 10
-37 22 -39 26 -23 36 25 14 20 14 65 -11z m4519 -286 c272 -157 507 -293 523
-304 31 -22 37 -53 8 -45 -35 9 -1036 590 -1059 614 -27 29 -20 48 11 32 12
-7 245 -140 517 -297z m-4818 265 l36 -23 -49 -27 -49 -28 -40 24 -40 24 47
26 c27 15 50 26 53 26 3 0 22 -10 42 -22z m-291 -9 l39 -22 -46 -29 -47 -29
-34 19 c-19 10 -37 21 -39 25 -4 5 72 58 85 58 2 0 21 -10 42 -22z m726 -49
c31 -20 33 -22 16 -34 -15 -11 -24 -10 -55 8 -40 22 -46 32 -25 40 21 9 29 7
64 -14z m5206 -95 c111 -64 210 -124 220 -132 19 -17 23 -42 6 -42 -6 0 -109
57 -230 126 -165 95 -219 131 -219 145 0 10 5 19 10 19 6 0 102 -52 213 -116z
m-5506 75 l35 -22 -48 -28 -48 -28 -38 21 c-42 24 -41 31 10 58 47 24 48 24
89 -1z m-288 -10 l35 -21 -47 -29 -46 -28 -41 23 -42 24 44 26 c52 31 54 31
97 5z m-294 -6 c19 -9 35 -20 35 -24 0 -4 -19 -18 -42 -32 l-43 -25 -37 19
c-21 11 -38 23 -38 27 0 7 67 49 82 51 4 1 23 -7 43 -16z m745 -83 c0 -3 -20
-16 -45 -30 -45 -25 -45 -25 -80 -6 -19 11 -35 23 -35 27 0 4 19 18 43 32 l42
24 37 -21 c21 -12 38 -23 38 -26z m-570 -20 c0 -3 -22 -17 -48 -31 l-47 -26
-39 24 -38 25 47 27 48 28 39 -21 c21 -12 38 -23 38 -26z m251 33 c16 -10 29
-20 29 -23 0 -3 -19 -17 -43 -31 l-43 -26 -37 21 c-20 11 -37 23 -37 26 0 8
74 49 88 50 8 0 27 -8 43 -17z m-572 -20 c17 -10 31 -21 31 -24 0 -3 -20 -17
-45 -30 -45 -24 -45 -24 -80 -5 -19 11 -35 22 -35 26 0 8 72 49 87 50 6 0 25
-8 42 -17z m730 -72 c10 -6 -19 -28 -109 -81 l-123 -72 -32 18 c-18 11 -33 24
-33 29 0 6 52 40 116 77 124 71 120 70 181 29z m-279 -19 c0 -4 -19 -18 -43
-31 l-43 -23 -43 22 -44 22 49 28 49 28 38 -19 c20 -11 37 -23 37 -27z m5795
-81 c176 -102 221 -132 223 -151 5 -30 5 -30 -207 92 -243 140 -251 145 -251
168 0 11 3 20 8 19 4 0 106 -58 227 -128z m-6077 73 c2 -1 -17 -14 -42 -29
-48 -28 -65 -27 -104 3 l-23 18 48 26 48 27 35 -21 c19 -12 36 -23 38 -24z
m-201 -59 l52 -31 -45 -27 c-25 -15 -47 -27 -50 -27 -2 0 -52 28 -110 61
l-105 62 48 28 47 28 56 -32 c30 -17 78 -45 107 -62z m297 4 c20 -12 36 -23
36 -25 0 -2 -20 -15 -45 -29 l-44 -27 -41 23 c-22 12 -39 24 -37 25 3 3 91 54
94 54 1 0 18 -9 37 -21z m2152 -115 l115 -66 165 51 c115 36 170 49 181 42 16
-8 -13 -19 -257 -93 -19 -6 -38 -13 -42 -17 -4 -4 47 -38 114 -76 88 -51 115
-71 99 -73 -24 -4 -525 281 -514 292 12 11 23 6 139 -60z m-2011 35 c20 -12
35 -23 33 -24 -2 -1 -58 -34 -124 -72 l-121 -71 -37 21 c-20 12 -36 24 -36 27
0 7 230 140 242 140 4 0 23 -10 43 -21z m-288 -10 l35 -22 -46 -29 -47 -29
-40 25 -41 24 44 26 c52 31 52 31 95 5z m6218 -164 c66 -38 123 -73 127 -79
12 -18 9 -48 -5 -44 -26 7 -290 164 -294 176 -3 6 -2 19 1 28 5 14 9 15 29 2
12 -8 76 -46 142 -83z m-90 -153 c170 -99 221 -133 223 -150 2 -12 0 -22 -4
-22 -8 0 -388 215 -426 242 -25 17 -40 59 -20 58 4 -1 106 -58 227 -128z"/>
<path d="M13220 12675 c-47 -56 35 -198 104 -181 35 9 43 46 22 100 -28 73
-96 117 -126 81z"/>
<path d="M6549 17908 c-12 -27 -14 -193 -14 -978 l0 -945 24 -47 c32 -62 70
-98 159 -148 75 -42 158 -65 203 -55 l26 6 -28 29 -29 28 1 924 c0 850 1 927
17 968 l18 45 -171 99 c-93 54 -175 100 -181 103 -6 2 -17 -11 -25 -29z"/>
<path d="M2790 15795 c-642 -369 -1096 -637 -1112 -655 l-28 -30 0 -631 c0
-571 2 -634 17 -659 22 -39 255 -170 301 -170 18 0 49 9 70 19 136 71 2142
1234 2165 1256 l27 26 0 645 0 646 -27 27 c-16 15 -78 55 -140 89 -83 46 -121
62 -150 62 -33 0 -202 -94 -1123 -625z m1082 -334 l3 -279 100 59 c55 32 106
59 113 59 14 0 17 -136 3 -158 -13 -22 -334 -203 -343 -194 -5 5 -7 170 -6
368 l3 359 49 33 c26 17 54 32 62 32 11 0 14 -51 16 -279z m-264 -238 l-3
-368 -54 -32 c-30 -18 -58 -30 -62 -27 -5 3 -9 80 -10 172 l0 167 -35 -108
c-30 -94 -39 -110 -67 -127 -18 -11 -36 -20 -40 -20 -5 0 -23 32 -40 71 l-32
72 -5 -184 -5 -184 -50 -32 c-27 -18 -55 -33 -62 -33 -10 0 -13 78 -13 363 0
408 -6 374 77 416 l43 21 57 -115 c32 -63 60 -115 63 -115 6 0 18 35 85 253
36 116 37 118 83 147 26 16 53 30 60 30 10 0 12 -77 10 -367z m-570 -28 c5
-89 0 -99 -73 -140 l-65 -36 0 -279 c0 -265 -1 -281 -20 -300 -17 -17 -91 -60
-105 -60 -3 0 -5 126 -5 281 l0 281 -64 -36 c-35 -20 -67 -36 -70 -36 -12 0
-6 159 7 170 25 23 372 220 382 217 6 -2 11 -30 13 -62z m-504 -241 c8 -20 8
-672 0 -701 -7 -25 -107 -88 -124 -78 -6 4 -10 59 -10 136 0 71 -3 129 -6 129
-3 0 -34 -17 -69 -37 l-65 -38 0 -127 c0 -70 -4 -137 -9 -150 -10 -26 -105
-83 -121 -73 -11 7 -15 691 -4 719 7 19 113 81 122 71 4 -3 9 -64 12 -135 l5
-128 68 39 67 40 0 133 c0 148 1 152 70 190 53 30 56 31 64 10z"/>
<path d="M7477 16021 c-69 -40 -69 -41 -42 -88 20 -34 48 -54 147 -112 67 -39
124 -69 125 -67 6 5 -162 289 -172 293 -6 1 -32 -10 -58 -26z"/>
<path d="M16500 15595 c-27 -32 11 -135 50 -135 44 0 49 73 9 125 -23 29 -41
32 -59 10z"/>
<path d="M16662 15508 c-33 -33 8 -142 51 -136 18 3 22 10 25 49 4 67 -42 121
-76 87z"/>
<path d="M17049 15423 c-13 -16 -12 -17 4 -4 16 13 21 21 13 21 -2 0 -10 -8
-17 -17z"/>
<path d="M17095 15431 c-3 -5 -2 -12 3 -15 5 -3 9 1 9 9 0 17 -3 19 -12 6z"/>
<path d="M16820 15415 c-17 -20 -7 -91 16 -116 26 -29 58 -21 62 15 5 40 -5
73 -28 96 -24 24 -34 25 -50 5z"/>
<path d="M17073 15403 c-15 -5 -17 -23 -4 -23 5 0 11 7 15 15 3 8 4 15 3 14
-1 0 -8 -3 -14 -6z"/>
<path d="M17060 15174 c6 -6 6 -15 2 -20 -4 -4 0 -3 9 4 9 6 19 9 23 5 4 -4 4
0 1 9 -4 9 -15 16 -25 15 -13 -1 -16 -5 -10 -13z"/>
<path d="M2790 13295 c-633 -364 -1096 -637 -1112 -655 l-28 -30 0 -631 c0
-566 2 -634 16 -659 25 -41 255 -170 304 -170 32 0 210 99 1127 626 598 345
1098 638 1110 653 l23 26 0 640 c0 555 -2 643 -15 662 -8 12 -71 53 -139 92
-95 55 -132 71 -162 71 -33 0 -200 -93 -1124 -625z m844 -341 c3 -9 6 -52 6
-96 l0 -79 55 31 c65 37 67 35 63 -66 l-3 -68 -57 -34 -58 -34 0 -92 c0 -59
-5 -98 -12 -108 -15 -19 -93 -68 -108 -68 -6 0 -10 37 -10 95 0 52 -2 95 -5
95 -3 0 -27 -14 -55 -31 -27 -17 -54 -28 -60 -24 -13 8 -13 121 0 146 6 11 35
33 65 50 l54 31 3 101 3 102 50 32 c57 38 61 39 69 17z m-454 -345 c0 -49 3
-89 8 -89 4 0 25 11 47 25 62 38 65 35 65 -55 l0 -79 -60 -33 -60 -33 0 -95
c0 -52 -4 -100 -8 -106 -11 -17 -90 -64 -107 -64 -12 0 -15 17 -15 95 l0 95
-49 -30 c-26 -17 -53 -30 -60 -30 -7 0 -11 27 -11 80 l0 79 60 33 60 33 0 95
c0 52 4 101 9 108 11 18 104 71 114 65 4 -2 7 -44 7 -94z m-390 -58 c51 -37
78 -142 44 -172 -24 -21 -103 -64 -106 -58 -2 2 -10 18 -19 34 -29 56 -101 25
-140 -60 -15 -33 -19 -65 -19 -176 0 -121 2 -140 19 -160 l20 -24 38 20 c46
24 79 72 88 126 6 35 13 43 58 69 65 37 77 37 77 3 0 -88 -60 -220 -136 -302
-123 -133 -246 -128 -285 12 -16 57 -15 308 1 377 38 162 130 284 247 326 43
15 77 11 113 -15z"/>
<path d="M17926 13058 c-8 -32 24 -93 49 -93 15 0 21 8 23 33 6 62 -57 115
-72 60z"/>
<path d="M18059 12994 c-11 -13 -10 -23 2 -57 11 -34 19 -42 39 -42 38 0 41
63 4 99 -19 20 -28 20 -45 0z"/>
<path d="M18184 12915 c-13 -34 22 -105 51 -105 28 0 33 64 9 98 -17 25 -52
29 -60 7z"/>
<path d="M18337 12769 c7 -7 15 -10 18 -7 3 3 -2 9 -12 12 -14 6 -15 5 -6 -5z"/>
<path d="M10807 11183 c-10 -9 -8 -43 2 -43 5 0 14 6 20 14 8 10 8 16 -2 25
-8 6 -17 8 -20 4z"/>
<path d="M3762 10686 c-23 -8 -55 -22 -70 -32 -33 -21 -154 -126 -150 -130 2
-1 28 4 58 12 81 22 215 4 338 -46 179 -71 518 -262 717 -404 465 -332 778
-804 1024 -1542 27 -82 108 -338 180 -569 213 -689 304 -941 437 -1211 171
-349 365 -571 599 -689 132 -66 167 -73 262 -51 184 43 403 130 606 240 l119
64 15 -36 c15 -35 673 -1699 754 -1907 l39 -100 -29 30 c-16 17 -381 401 -811
855 l-781 825 -82 -4 c-45 -2 -84 -5 -85 -6 -2 -2 427 -458 953 -1013 l957
-1010 62 23 c35 13 60 29 60 37 -1 7 -212 544 -468 1193 -437 1104 -466 1181
-449 1193 76 55 298 192 301 185 2 -4 18 -48 35 -97 31 -86 34 -90 72 -103
170 -61 465 11 633 154 l34 28 -73 278 c-71 273 -72 279 -55 305 37 57 67 136
80 213 8 44 16 82 18 85 3 2 108 -265 235 -594 228 -591 230 -597 206 -602
l-24 -5 31 -30 c42 -40 76 -107 91 -184 15 -73 7 -96 -37 -96 -27 0 -29 3 -51
90 -13 50 -36 110 -51 135 -30 48 -80 84 -105 74 -14 -5 -13 -11 8 -42 32 -49
57 -149 53 -214 l-3 -53 -35 0 -34 0 -18 109 c-11 65 -27 125 -41 150 -20 37
-28 42 -87 58 -36 9 -66 17 -67 18 -2 0 -3 -12 -3 -26 0 -73 -63 -137 -179
-183 -208 -82 -356 -86 -404 -11 -18 30 -36 24 -55 -17 -14 -31 -17 -70 -17
-218 0 -152 4 -196 24 -285 33 -146 51 -185 98 -209 78 -39 151 -54 247 -48
121 6 229 36 418 113 144 59 173 67 353 98 108 19 199 36 201 39 3 3 -11 44
-30 93 -20 48 -36 89 -36 91 0 2 34 3 75 3 190 0 461 101 616 231 l42 35 -72
270 c-176 652 -548 1921 -671 2293 -111 336 -227 504 -409 596 -149 74 -386
73 -725 -5 -67 -16 -122 -27 -124 -25 -1 1 -14 45 -28 96 -51 189 -123 293
-244 358 -95 51 -166 64 -342 65 l-157 1 -3 135 -3 135 -37 -70 c-110 -212
-181 -544 -204 -960 -6 -115 -8 -123 -46 -195 -106 -200 -282 -367 -506 -479
-85 -43 -245 -95 -367 -121 -125 -25 -414 -48 -451 -34 -25 8 -34 33 -135 354
-151 483 -215 653 -354 930 -212 427 -465 719 -840 970 -228 153 -538 318
-694 370 -112 38 -241 48 -309 26z"/>
<path d="M4487 5351 c-284 -719 -517 -1312 -517 -1317 0 -13 127 -57 140 -49
12 7 2024 2135 2028 2144 1 3 -28 17 -64 30 l-66 24 -43 -44 c-23 -24 -426
-450 -894 -946 -469 -497 -854 -903 -856 -903 -6 0 -43 -94 457 1170 242 613
442 1120 444 1125 2 6 -22 24 -54 42 l-59 32 -516 -1308z"/>
<path d="M14873 6138 c-12 -17 -21 -33 -20 -34 1 -1 40 6 87 17 47 10 99 19
115 19 52 2 -1 17 -85 24 l-75 7 -22 -33z"/>
<path d="M6380 4227 l0 -1836 32 10 c18 5 48 6 65 3 l33 -6 0 1820 0 1819 -32
6 c-18 3 -48 9 -65 13 l-33 7 0 -1836z"/>
<path d="M11425 5676 c-49 -7 -149 -22 -222 -32 -130 -18 -132 -18 -104 -35
73 -44 141 -166 144 -259 l2 -45 -37 -3 c-34 -3 -38 0 -44 25 -19 88 -56 170
-98 221 -32 37 -100 72 -127 65 -18 -5 -16 -9 15 -44 44 -48 61 -80 80 -156
28 -109 17 -148 -40 -141 -25 3 -28 8 -44 88 -28 139 -94 240 -155 240 l-24 0
29 -63 c47 -100 66 -241 36 -266 -8 -7 -27 -11 -43 -9 -27 3 -28 4 -40 102
-21 170 -49 230 -112 241 -22 4 -60 20 -86 36 -64 41 -63 41 -79 -32 -8 -38
-41 -75 -100 -113 -50 -32 -53 -37 -66 -96 -18 -83 -36 -104 -94 -106 -47 -2
-185 24 -241 46 -16 6 -51 32 -77 57 -29 29 -52 44 -62 40 -26 -10 -30 -75
-13 -187 9 -58 19 -161 22 -230 10 -217 13 -244 35 -303 25 -67 58 -93 160
-127 57 -20 79 -22 185 -17 141 6 232 29 440 110 156 61 185 68 400 97 372 51
559 127 736 300 47 47 94 99 102 116 11 22 17 67 19 160 2 111 0 135 -17 168
-27 56 -80 105 -144 134 -68 31 -199 38 -336 18z"/>
</g>
</svg>
