<?xml version="1.0" standalone="no"?>
<!DOCTYPE svg PUBLIC "-//W3C//DTD SVG 20010904//EN"
 "http://www.w3.org/TR/2001/REC-SVG-20010904/DTD/svg10.dtd">
<svg version="1.0" xmlns="http://www.w3.org/2000/svg"
 width="512.000000pt" height="512.000000pt" viewBox="0 0 512.000000 512.000000"
 preserveAspectRatio="xMidYMid meet">
<metadata>
Created by potrace 1.11, written by Peter Selinger 2001-2013
</metadata>
<g transform="translate(0.000000,512.000000) scale(0.100000,-0.100000)"
fill="#000000" stroke="none">
<path d="M705 4677 l-280 -162 0 -170 0 -170 40 -22 40 -22 288 165 287 166 0
169 0 169 -32 20 c-18 11 -40 20 -48 20 -8 0 -141 -74 -295 -163z m260 -62 c0
-14 -8 -21 -27 -23 -14 -2 -29 -10 -32 -18 -4 -11 2 -13 27 -11 30 2 32 0 35
-34 2 -27 -3 -44 -23 -68 -29 -34 -55 -40 -76 -15 -11 14 -10 18 5 29 10 8 24
11 30 9 7 -3 19 2 26 11 11 13 8 15 -24 15 -34 0 -36 2 -36 31 0 54 37 101 75
96 13 -1 20 -9 20 -22z m-127 -73 c2 -13 -2 -22 -10 -23 -7 -1 -19 -2 -27 -3
-30 -3 -23 -26 8 -26 19 0 34 -6 37 -15 16 -42 -37 -119 -79 -113 -35 5 -29
42 7 48 43 7 47 31 4 28 -28 -3 -33 1 -36 20 -7 50 41 117 78 110 8 -2 16 -13
18 -26z m-123 -73 c8 -24 -11 -42 -34 -34 -23 9 -41 -15 -41 -55 0 -52 10 -56
41 -18 33 40 49 30 26 -17 -22 -46 -61 -72 -83 -54 -26 22 -16 140 16 174 29
31 66 33 75 4z"/>
<path d="M3000 4561 c0 -45 -4 -81 -9 -81 -6 0 -37 16 -70 35 -68 40 -86 43
-101 16 -6 -13 -10 -149 -10 -375 l0 -355 -29 5 c-24 5 -64 -14 -237 -115
-181 -104 -209 -118 -212 -101 -4 23 -48 60 -71 59 -9 0 -1 -7 17 -15 45 -20
41 -41 -10 -49 -24 -3 -58 -9 -77 -12 -31 -5 -33 -4 -27 13 5 10 10 36 13 56
5 34 10 39 45 49 82 22 143 113 102 153 -11 11 -27 16 -45 14 -24 -4 -28 -1
-34 30 -6 31 -9 34 -33 29 -15 -3 -47 -13 -72 -22 -39 -15 -56 -16 -135 -6
-97 12 -135 7 -193 -29 -18 -11 -37 -31 -44 -44 -9 -20 -16 -24 -38 -19 -34 6
-48 -12 -20 -27 l20 -11 -21 -29 c-32 -42 -36 -114 -11 -197 26 -84 63 -141
125 -193 58 -47 105 -64 164 -57 53 6 76 25 91 76 19 61 16 81 -11 81 -35 0
-67 40 -67 82 0 66 51 89 94 43 l23 -25 97 22 c102 23 128 19 83 -14 -32 -23
-34 -34 -7 -41 25 -6 26 -33 1 -40 -15 -4 -19 -17 -23 -82 -7 -100 -21 -115
-112 -115 -54 0 -66 -4 -86 -25 -13 -14 -22 -27 -19 -28 2 -2 33 -19 69 -37
36 -19 77 -42 93 -53 l27 -19 60 56 c75 69 123 85 178 59 20 -10 45 -16 55
-15 10 2 18 -4 19 -15 2 -33 3 -38 12 -52 7 -10 2 -12 -23 -6 -20 4 -31 3 -31
-4 0 -6 -9 -11 -20 -11 -11 0 -20 -7 -20 -15 0 -8 -7 -15 -16 -15 -13 0 -14
-3 -5 -13 6 -8 8 -17 4 -20 -3 -4 7 -7 23 -7 40 0 59 -19 37 -35 -14 -10 -6
-18 58 -55 40 -24 68 -45 61 -48 -7 -2 -48 16 -91 41 -75 42 -82 44 -129 36
-58 -9 -92 -24 -92 -42 0 -7 11 -59 25 -117 14 -58 25 -122 25 -142 0 -21 4
-38 9 -38 5 0 60 23 123 51 118 52 158 85 180 146 7 18 16 33 21 33 5 0 7 7 3
15 -3 10 1 15 14 15 23 0 35 16 18 23 -7 2 -10 7 -7 11 3 3 18 0 32 -7 19 -10
23 -17 16 -28 -15 -23 -10 -37 10 -32 13 3 17 10 14 20 -5 12 -1 14 15 8 13
-4 22 -2 22 4 0 6 -5 11 -11 11 -5 0 -7 5 -4 11 4 6 13 8 21 5 7 -3 16 -1 19
4 4 6 1 10 -6 10 -18 0 -2 13 19 16 9 1 28 6 42 10 22 7 23 6 12 -9 -11 -13
-10 -19 7 -36 25 -25 26 -31 6 -31 -9 0 -12 -6 -9 -15 4 -8 12 -15 20 -15 10
0 12 -5 5 -17 -5 -10 -17 -37 -26 -60 -21 -51 -71 -91 -237 -189 -65 -38 -117
-73 -115 -78 2 -5 158 -98 347 -207 l345 -199 5 -541 c5 -593 3 -570 63 -555
l27 6 0 515 c0 283 2 515 5 515 2 0 19 -9 37 -20 18 -11 43 -20 56 -20 12 0
205 106 428 235 223 129 410 235 415 235 5 0 9 -65 9 -144 l0 -144 -24 -6
c-24 -6 -73 -48 -108 -93 -10 -13 -37 -26 -74 -33 -35 -7 -66 -21 -81 -36 -21
-21 -23 -31 -19 -87 3 -52 9 -69 30 -90 30 -30 34 -69 11 -124 -34 -82 11 -30
58 66 33 68 33 85 2 136 -27 44 -30 55 -16 55 6 0 21 -18 34 -41 l24 -40 31
53 c44 78 91 140 102 133 5 -3 -11 -34 -34 -68 -38 -53 -96 -158 -96 -171 0
-2 27 7 59 20 72 29 121 40 121 27 0 -5 -19 -15 -42 -22 -24 -7 -68 -24 -99
-38 -47 -20 -58 -30 -67 -59 -8 -27 -7 -43 4 -69 27 -65 11 -179 -32 -226 -24
-27 -12 -34 56 -34 46 1 65 6 97 28 40 27 83 91 83 121 0 10 9 16 23 16 39 0
47 18 47 114 1 64 5 97 15 110 19 25 19 66 0 93 -13 19 -15 67 -13 319 l3 297
46 29 47 28 84 -49 c63 -36 89 -46 102 -39 14 8 16 46 16 380 0 299 -2 368
-13 360 -9 -8 -50 11 -157 74 -80 46 -187 107 -237 136 -86 49 -93 55 -93 84
0 57 21 60 97 16 37 -22 71 -37 76 -33 4 4 6 81 5 171 l-3 163 -25 2 c-14 1
-319 171 -678 379 -359 207 -659 379 -667 383 -12 4 -15 -9 -15 -76z m90 -52
c0 -4 -7 -6 -15 -3 -8 4 -15 10 -15 15 0 4 7 6 15 3 8 -4 15 -10 15 -15z m149
-90 c2 -7 -9 -4 -30 8 -19 11 -49 29 -66 39 -18 10 -33 22 -33 27 0 12 123
-58 129 -74z m-124 41 c3 -5 2 -10 -4 -10 -5 0 -13 5 -16 10 -3 6 -2 10 4 10
5 0 13 -4 16 -10z m-185 -38 l65 -38 3 -326 2 -327 28 -19 c15 -10 228 -135
475 -277 l447 -258 0 -73 c0 -44 -4 -74 -10 -74 -14 0 -1073 611 -1082 625
-10 13 -10 805 0 805 4 0 36 -17 72 -38z m266 -8 c24 -14 44 -30 44 -36 0 -10
-63 24 -90 49 -23 21 -2 15 46 -13z m-81 6 c3 -5 2 -10 -4 -10 -5 0 -13 5 -16
10 -3 6 -2 10 4 10 5 0 13 -4 16 -10z m-25 -31 c0 -4 -7 -6 -15 -3 -8 4 -15
10 -15 15 0 4 7 6 15 3 8 -4 15 -10 15 -15z m106 -15 c25 -15 43 -28 40 -31
-5 -6 -83 34 -91 47 -10 16 3 12 51 -16z m-16 -30 c34 -20 59 -38 56 -41 -6
-7 -126 59 -126 69 0 12 5 10 70 -28z m145 10 c26 -17 33 -34 13 -34 -14 0
-48 30 -48 42 0 12 8 10 35 -8z m-210 -14 c3 -5 2 -10 -4 -10 -5 0 -13 5 -16
10 -3 6 -2 10 4 10 5 0 13 -4 16 -10z m-25 -26 c0 -2 -7 -4 -15 -4 -8 0 -15 4
-15 10 0 5 7 7 15 4 8 -4 15 -8 15 -10z m107 -20 c25 -14 42 -28 39 -31 -5 -6
-96 44 -96 52 0 10 14 4 57 -21z m-17 -30 c34 -20 59 -38 56 -41 -6 -6 -113
54 -121 68 -10 15 1 11 65 -27z m156 19 c10 -10 12 -19 6 -21 -14 -4 -52 16
-52 28 0 16 27 11 46 -7z m207 -59 c117 -67 195 -118 127 -84 -31 16 -263 151
-269 156 -17 16 29 -7 142 -72z m-210 -2 c10 -10 14 -21 11 -25 -8 -7 -54 22
-54 34 0 15 26 10 43 -9z m143 -18 c58 -32 86 -54 69 -54 -9 0 -145 80 -145
85 0 10 13 4 76 -31z m-386 -15 c0 -4 -7 -6 -15 -3 -8 4 -15 10 -15 15 0 4 7
6 15 3 8 -4 15 -10 15 -15z m90 -45 c33 -20 59 -39 56 -41 -6 -7 -126 60 -126
69 0 12 5 10 70 -28z m151 17 c13 -11 21 -23 17 -26 -9 -9 -58 21 -58 35 0 15
15 12 41 -9z m116 -2 c19 -12 32 -23 29 -26 -5 -6 -63 24 -71 37 -10 16 5 12
42 -11z m-332 -19 c3 -5 2 -10 -4 -10 -5 0 -13 5 -16 10 -3 6 -2 10 4 10 5 0
13 -4 16 -10z m501 -16 c24 -14 44 -30 44 -36 0 -10 -63 24 -90 49 -23 21 -2
15 46 -13z m649 -322 c-5 -5 -555 311 -555 320 0 3 126 -66 280 -155 153 -89
277 -163 275 -165z m-1068 292 c25 -14 42 -28 40 -31 -6 -6 -84 33 -92 47 -10
16 5 12 52 -16z m134 7 c13 -11 21 -23 17 -26 -9 -9 -58 21 -58 35 0 15 15 12
41 -9z m257 -23 c42 -23 71 -43 64 -46 -10 -3 -152 75 -152 84 0 9 16 2 88
-38z m-473 22 c3 -5 2 -10 -4 -10 -5 0 -13 5 -16 10 -3 6 -2 10 4 10 5 0 13
-4 16 -10z m-25 -26 c0 -2 -7 -4 -15 -4 -8 0 -15 4 -15 10 0 5 7 7 15 4 8 -4
15 -8 15 -10z m107 -20 c25 -14 42 -28 39 -31 -5 -6 -96 44 -96 52 0 10 14 4
57 -21z m-17 -30 c34 -20 59 -38 56 -41 -6 -6 -113 54 -121 68 -10 15 1 11 65
-27z m170 -5 c0 -13 -24 -11 -45 4 -28 21 -9 40 21 21 13 -9 24 -20 24 -25z
m126 -6 c-7 -8 -76 28 -76 39 0 5 18 -1 41 -12 23 -12 38 -24 35 -27z m-361 7
c3 -5 2 -10 -4 -10 -5 0 -13 5 -16 10 -3 6 -2 10 4 10 5 0 13 -4 16 -10z m885
-180 c294 -169 275 -158 268 -165 -7 -7 -592 333 -597 347 -2 6 11 2 30 -9 19
-11 153 -89 299 -173z m-803 134 c25 -14 42 -28 39 -31 -5 -6 -96 44 -96 52 0
10 14 4 57 -21z m268 -14 c3 -5 3 -10 0 -10 -13 0 -65 34 -65 42 0 10 56 -18
65 -32z m100 9 c30 -17 55 -35 55 -41 0 -10 -84 34 -110 58 -23 22 -4 16 55
-17z m-450 11 c3 -5 2 -10 -4 -10 -5 0 -13 5 -16 10 -3 6 -2 10 4 10 5 0 13
-4 16 -10z m221 -7 c10 -10 12 -19 6 -21 -14 -4 -52 16 -52 28 0 16 27 11 46
-7z m-101 -64 c4 -5 3 -9 0 -9 -13 0 -95 52 -95 60 0 10 87 -37 95 -51z m-120
31 c3 -5 2 -10 -4 -10 -5 0 -13 5 -16 10 -3 6 -2 10 4 10 5 0 13 -4 16 -10z
m453 -34 c28 -16 52 -33 52 -38 0 -5 -27 5 -60 24 -33 18 -60 36 -60 41 0 10
1 10 68 -27z m-483 14 c3 -5 2 -10 -4 -10 -5 0 -13 5 -16 10 -3 6 -2 10 4 10
5 0 13 -4 16 -10z m118 -28 c22 -13 37 -26 34 -29 -8 -7 -97 47 -97 59 0 10 2
9 63 -30z m132 18 c10 -11 15 -23 12 -26 -8 -8 -57 23 -57 36 0 17 26 11 45
-10z m-159 -41 c50 -28 74 -49 58 -49 -9 0 -124 70 -124 76 0 9 14 3 66 -27z
m-91 11 c3 -5 2 -10 -4 -10 -5 0 -13 5 -16 10 -3 6 -2 10 4 10 5 0 13 -4 16
-10z m246 -29 c13 -11 21 -23 17 -26 -9 -9 -58 21 -58 35 0 15 15 12 41 -9z
m-155 -22 c50 -28 74 -49 58 -49 -9 0 -124 70 -124 76 0 9 14 3 66 -27z m-60
-16 c-7 -7 -26 7 -26 19 0 6 6 6 15 -2 9 -7 13 -15 11 -17z m766 -149 c305
-175 283 -162 275 -170 -6 -7 -544 300 -567 323 -13 14 -13 15 2 10 10 -4 141
-77 290 -163z m-679 108 c22 -13 37 -25 34 -28 -6 -7 -97 47 -97 57 0 11 2 10
63 -29z m125 22 c24 -16 29 -34 10 -34 -14 0 -48 30 -48 42 0 12 13 10 38 -8z
m119 -5 c19 -12 32 -23 29 -26 -5 -6 -63 24 -71 37 -10 16 5 12 42 -11z m-331
-16 c-7 -7 -26 7 -26 19 0 6 6 6 15 -2 9 -7 13 -15 11 -17z m-31 -13 c3 -5 2
-10 -4 -10 -5 0 -13 5 -16 10 -3 6 -2 10 4 10 5 0 13 -4 16 -10z m154 -47 c2
-2 2 -5 -1 -8 -7 -7 -98 45 -98 56 0 8 74 -28 99 -48z m206 16 c20 -12 33 -24
30 -27 -6 -7 -75 30 -75 40 0 12 5 10 45 -13z m410 -175 c335 -193 370 -214
348 -214 -12 0 -682 385 -697 401 -29 28 41 -9 349 -187z m-676 154 c67 -37
66 -37 59 -43 -6 -6 -128 62 -128 70 0 10 14 4 69 -27z m157 18 c10 -8 16 -18
12 -22 -10 -9 -58 12 -58 26 0 14 23 12 46 -4z m623 -168 c278 -160 256 -146
248 -154 -6 -6 -517 283 -517 292 0 14 48 -11 269 -138z m-489 90 c0 -12 -9
-10 -41 9 -41 24 -36 36 6 16 19 -9 35 -20 35 -25z m392 -159 c191 -110 348
-205 348 -211 0 -5 -3 -7 -7 -5 -5 3 -159 91 -343 197 -312 179 -378 220 -356
220 5 0 166 -90 358 -201z m-528 175 c9 -8 14 -20 11 -25 -7 -10 -55 18 -55
32 0 15 27 10 44 -7z m98 -393 c479 -276 561 -320 578 -311 19 10 20 8 20 -45
0 -65 -13 -95 -40 -95 -10 0 -104 50 -209 110 -105 61 -197 113 -205 116 -8 3
-17 -2 -20 -13 -3 -11 -42 -40 -85 -66 -113 -67 -141 -66 -277 14 -105 61
-105 61 -102 98 3 33 9 39 76 79 109 66 110 65 -130 201 -110 63 -207 121
-214 129 -9 9 -14 37 -14 79 l0 65 33 -20 c17 -11 283 -164 589 -341z m433
155 c187 -108 342 -201 344 -207 4 -14 17 -21 -364 198 -282 162 -389 230
-335 211 8 -3 168 -94 355 -202z m-263 88 c43 -25 78 -48 78 -51 0 -5 -119 59
-155 84 -45 31 4 10 77 -33z m608 -46 c0 -13 -23 -5 -28 10 -2 7 2 10 12 6 9
-3 16 -11 16 -16z m-221 -178 c116 -67 211 -124 211 -126 0 -10 -458 252 -480
274 -17 17 -20 19 269 -148z m286 60 c3 -6 -1 -7 -9 -4 -18 7 -21 14 -7 14 6
0 13 -4 16 -10z m208 -117 c40 -25 51 -41 15 -22 -47 24 -208 122 -208 125 0
5 136 -68 193 -103z m-150 39 c42 -24 77 -48 77 -54 0 -6 -10 -4 -22 4 -13 8
-49 30 -80 48 -32 17 -61 37 -64 42 -9 14 -4 12 89 -40z m-28 -43 c4 -6 -7 -4
-23 5 -17 9 -34 21 -37 27 -4 6 7 4 23 -5 17 -9 34 -21 37 -27z m0 -50 c4 -6
-7 -4 -23 5 -17 9 -34 21 -37 27 -4 6 7 4 23 -5 17 -9 34 -21 37 -27z m179
-45 c11 -7 17 -16 14 -19 -7 -7 -168 87 -168 98 0 8 118 -52 154 -79z m16 34
c0 -12 -5 -10 -44 13 -50 29 -45 46 4 18 22 -13 40 -26 40 -31z m148 -38 c2
-5 -21 5 -52 22 -31 18 -56 36 -56 40 0 11 104 -48 108 -62z m-2048 46 c0 -3
-4 -8 -10 -11 -5 -3 -10 -1 -10 4 0 6 5 11 10 11 6 0 10 -2 10 -4z m1705 -47
c4 -6 -7 -4 -23 5 -17 9 -34 21 -37 27 -4 6 7 4 23 -5 17 -9 34 -21 37 -27z
m195 -52 c121 -69 115 -65 107 -73 -9 -10 -276 144 -277 159 0 9 34 -8 170
-86z m-1865 73 c-3 -5 -10 -10 -16 -10 -5 0 -9 5 -9 10 0 6 7 10 16 10 8 0 12
-4 9 -10z m35 -14 c0 -11 -19 -15 -25 -6 -3 5 1 10 9 10 9 0 16 -2 16 -4z
m-70 -16 c0 -5 -8 -10 -17 -10 -15 0 -16 2 -3 10 19 12 20 12 20 0z m1543 -52
c47 -27 67 -45 67 -58 0 -11 -3 -20 -7 -20 -5 1 -44 22 -88 49 -57 34 -81 54
-83 70 -4 26 -6 27 111 -41z m-1438 42 c-3 -5 -10 -10 -16 -10 -5 0 -9 5 -9
10 0 6 7 10 16 10 8 0 12 -4 9 -10z m1600 -31 c4 -6 -7 -4 -23 5 -17 9 -34 21
-37 27 -4 6 7 4 23 -5 17 -9 34 -21 37 -27z m180 -46 c11 -6 17 -14 14 -18 -7
-7 -168 86 -169 98 0 6 79 -35 155 -80z m105 35 c0 -12 -10 -9 -46 13 -48 29
-42 44 6 17 22 -13 40 -26 40 -30z m-2053 36 c-3 -3 -12 -4 -19 -1 -8 3 -5 6
6 6 11 1 17 -2 13 -5z m98 -4 c3 -5 -1 -10 -10 -10 -9 0 -13 5 -10 10 3 6 8
10 10 10 2 0 7 -4 10 -10z m-60 -10 c3 -5 -1 -10 -10 -10 -9 0 -13 5 -10 10 3
6 8 10 10 10 2 0 7 -4 10 -10z m-65 -10 c0 -5 -7 -10 -16 -10 -8 0 -12 5 -9
10 3 6 10 10 16 10 5 0 9 -4 9 -10z m250 6 c0 -2 -7 -6 -15 -10 -8 -3 -15 -1
-15 4 0 6 7 10 15 10 8 0 15 -2 15 -4z m-155 -16 c3 -5 -1 -10 -10 -10 -9 0
-13 5 -10 10 3 6 8 10 10 10 2 0 7 -4 10 -10z m62 4 c-3 -3 -12 -4 -19 -1 -8
3 -5 6 6 6 11 1 17 -2 13 -5z m-127 -14 c0 -5 -5 -10 -11 -10 -5 0 -7 5 -4 10
3 6 8 10 11 10 2 0 4 -4 4 -10z m165 0 c3 -5 -1 -10 -10 -10 -9 0 -13 5 -10
10 3 6 8 10 10 10 2 0 7 -4 10 -10z m85 6 c0 -11 -19 -15 -25 -6 -3 5 1 10 9
10 9 0 16 -2 16 -4z m1680 -78 c0 -14 -12 -9 -77 30 -85 50 -80 63 7 16 39
-21 70 -42 70 -46z m-1830 62 c0 -5 -5 -10 -11 -10 -5 0 -7 5 -4 10 3 6 8 10
11 10 2 0 4 -4 4 -10z m-60 -10 c0 -5 -7 -10 -16 -10 -8 0 -12 5 -9 10 3 6 10
10 16 10 5 0 9 -4 9 -10z m155 0 c3 -5 -1 -10 -10 -10 -9 0 -13 5 -10 10 3 6
8 10 10 10 2 0 7 -4 10 -10z m85 6 c0 -3 -4 -8 -10 -11 -5 -3 -10 -1 -10 4 0
6 5 11 10 11 6 0 10 -2 10 -4z m-145 -16 c3 -5 -1 -10 -10 -10 -9 0 -13 5 -10
10 3 6 8 10 10 10 2 0 7 -4 10 -10z m-65 -10 c0 -5 -4 -10 -10 -10 -5 0 -10 5
-10 10 0 6 5 10 10 10 6 0 10 -4 10 -10z m160 0 c0 -5 -5 -10 -11 -10 -5 0 -7
5 -4 10 3 6 8 10 11 10 2 0 4 -4 4 -10z m87 4 c-3 -3 -12 -4 -19 -1 -8 3 -5 6
6 6 11 1 17 -2 13 -5z m-147 -14 c0 -5 -5 -10 -11 -10 -5 0 -7 5 -4 10 3 6 8
10 11 10 2 0 4 -4 4 -10z m1880 -42 c0 -12 -10 -9 -46 13 -48 29 -42 44 6 17
22 -13 40 -26 40 -30z m-2033 36 c-3 -3 -12 -4 -19 -1 -8 3 -5 6 6 6 11 1 17
-2 13 -5z m93 -4 c0 -5 -7 -10 -16 -10 -8 0 -12 5 -9 10 3 6 10 10 16 10 5 0
9 -4 9 -10z m155 0 c3 -5 -1 -10 -10 -10 -9 0 -13 5 -10 10 3 6 8 10 10 10 2
0 7 -4 10 -10z m-215 -10 c0 -5 -5 -10 -11 -10 -5 0 -7 5 -4 10 3 6 8 10 11
10 2 0 4 -4 4 -10z m155 0 c3 -5 -1 -10 -10 -10 -9 0 -13 5 -10 10 3 6 8 10
10 10 2 0 7 -4 10 -10z m162 4 c-3 -3 -12 -4 -19 -1 -8 3 -5 6 6 6 11 1 17 -2
13 -5z m-227 -14 c0 -5 -4 -10 -10 -10 -5 0 -10 5 -10 10 0 6 5 10 10 10 6 0
10 -4 10 -10z m160 0 c0 -5 -5 -10 -11 -10 -5 0 -7 5 -4 10 3 6 8 10 11 10 2
0 4 -4 4 -10z m-215 -10 c3 -5 -1 -10 -10 -10 -9 0 -13 5 -10 10 3 6 8 10 10
10 2 0 7 -4 10 -10z m155 0 c0 -5 -8 -10 -17 -10 -15 0 -16 2 -3 10 19 12 20
12 20 0z m1753 -61 c137 -80 133 -77 124 -85 -6 -7 -253 131 -262 147 -14 21
22 5 138 -62z m-1818 51 c-3 -5 -11 -10 -16 -10 -6 0 -7 5 -4 10 3 6 11 10 16
10 6 0 7 -4 4 -10z m260 0 c3 -5 -1 -10 -10 -10 -9 0 -13 5 -10 10 3 6 8 10
10 10 2 0 7 -4 10 -10z m-315 -10 c0 -5 -8 -10 -17 -10 -15 0 -16 2 -3 10 19
12 20 12 20 0z m155 0 c3 -5 -1 -10 -10 -10 -9 0 -13 5 -10 10 3 6 8 10 10 10
2 0 7 -4 10 -10z m-120 -20 c3 -5 -1 -10 -10 -10 -9 0 -13 5 -10 10 3 6 8 10
10 10 2 0 7 -4 10 -10z m312 4 c-3 -3 -12 -4 -19 -1 -8 3 -5 6 6 6 11 1 17 -2
13 -5z m43 -18 c0 -3 -4 -8 -10 -11 -5 -3 -10 -1 -10 4 0 6 5 11 10 11 6 0 10
-2 10 -4z m-370 -20 c0 -11 -19 -15 -25 -6 -3 5 1 10 9 10 9 0 16 -2 16 -4z
m405 -6 c-3 -5 -10 -10 -16 -10 -5 0 -9 5 -9 10 0 6 7 10 16 10 8 0 12 -4 9
-10z m-78 -6 c-3 -3 -12 -4 -19 -1 -8 3 -5 6 6 6 11 1 17 -2 13 -5z m113 -8
c0 -3 -4 -8 -10 -11 -5 -3 -10 -1 -10 4 0 6 5 11 10 11 6 0 10 -2 10 -4z
m1457 -43 c72 -40 99 -63 77 -63 -12 0 -174 95 -174 103 0 13 12 8 97 -40z
m-1540 31 c-3 -3 -12 -4 -19 -1 -8 3 -5 6 6 6 11 1 17 -2 13 -5z m-37 -18 c0
-11 -19 -15 -25 -6 -3 5 1 10 9 10 9 0 16 -2 16 -4z m1510 -31 c0 -10 -16 -4
-40 16 l-25 20 33 -16 c17 -8 32 -18 32 -20z m-1475 5 c-3 -5 -10 -10 -16 -10
-5 0 -9 5 -9 10 0 6 7 10 16 10 8 0 12 -4 9 -10z m75 0 c0 -5 -4 -10 -10 -10
-5 0 -10 5 -10 10 0 6 5 10 10 10 6 0 10 -4 10 -10z m-40 -20 c0 -5 -5 -10
-11 -10 -5 0 -7 5 -4 10 3 6 8 10 11 10 2 0 4 -4 4 -10z m75 0 c-3 -5 -11 -10
-16 -10 -6 0 -7 5 -4 10 3 6 11 10 16 10 6 0 7 -4 4 -10z m1237 -61 c67 -39
128 -75 133 -81 6 -6 -6 -2 -25 9 -19 11 -80 46 -135 78 -55 31 -102 59 -104
61 -15 14 22 -5 131 -67z m266 -8 c2 -6 -22 4 -52 22 -30 18 -55 35 -56 40 0
10 104 -50 108 -62z m-1538 49 c0 -5 -7 -10 -16 -10 -8 0 -12 5 -9 10 3 6 10
10 16 10 5 0 9 -4 9 -10z m70 0 c0 -5 -4 -10 -10 -10 -5 0 -10 5 -10 10 0 6 5
10 10 10 6 0 10 -4 10 -10z m-143 -6 c-3 -3 -12 -4 -19 -1 -8 3 -5 6 6 6 11 1
17 -2 13 -5z m103 -14 c0 -5 -5 -10 -11 -10 -5 0 -7 5 -4 10 3 6 8 10 11 10 2
0 4 -4 4 -10z m75 0 c-3 -5 -10 -10 -16 -10 -5 0 -9 5 -9 10 0 6 7 10 16 10 8
0 12 -4 9 -10z m-215 -4 c0 -11 -19 -15 -25 -6 -3 5 1 10 9 10 9 0 16 -2 16
-4z m67 -2 c-3 -3 -12 -4 -19 -1 -8 3 -5 6 6 6 11 1 17 -2 13 -5z m38 -14 c3
-5 -1 -10 -10 -10 -9 0 -13 5 -10 10 3 6 8 10 10 10 2 0 7 -4 10 -10z m75 2
c0 -10 -44 -32 -63 -32 -7 0 2 9 18 20 32 22 45 25 45 12z m-204 -16 c10 -8
16 -17 13 -21 -9 -8 -59 16 -53 26 7 13 17 11 40 -5z m54 10 c0 -3 -4 -8 -10
-11 -5 -3 -10 -1 -10 4 0 6 5 11 10 11 6 0 10 -2 10 -4z m1571 -23 c27 -16 49
-32 49 -37 0 -5 -6 -4 -13 2 -6 6 -32 22 -57 36 -25 14 -41 26 -36 26 4 0 30
-12 57 -27z m-1531 3 c0 -11 -19 -15 -25 -6 -3 5 1 10 9 10 9 0 16 -2 16 -4z
m-45 -26 c-3 -5 -10 -10 -16 -10 -5 0 -9 5 -9 10 0 6 7 10 16 10 8 0 12 -4 9
-10z m55 -10 c-26 -20 -40 -25 -40 -14 0 11 34 33 50 33 10 1 6 -6 -10 -19z
m1540 -20 c36 -18 53 -40 32 -40 -9 0 -82 49 -82 55 0 9 10 5 50 -15z m-16
-46 c25 -14 46 -30 46 -34 0 -10 -87 37 -95 51 -9 14 -2 11 49 -17z"/>
<path d="M3386 3241 c-8 -12 10 -41 25 -41 13 0 11 13 -4 35 -10 13 -16 15
-21 6z"/>
<path d="M1682 4328 l3 -252 34 -23 c19 -13 37 -23 40 -23 3 0 6 114 6 252 l0
253 -35 22 c-19 12 -38 23 -43 23 -4 0 -6 -113 -5 -252z"/>
<path d="M705 4037 l-280 -162 0 -170 0 -170 40 -22 41 -22 287 165 287 166 0
169 0 169 -32 20 c-18 11 -40 20 -48 20 -8 -1 -141 -74 -295 -163z m315 -132
c29 15 30 15 30 -8 0 -17 -11 -29 -39 -45 -21 -12 -41 -22 -45 -22 -3 0 -6 42
-6 94 0 67 4 96 13 99 9 3 13 -15 15 -65 l3 -68 29 15z m-90 -3 c0 -82 -8
-112 -32 -112 -4 0 -8 15 -9 33 0 30 -1 31 -10 8 -6 -15 -15 -21 -24 -17 -11
4 -15 -2 -15 -22 0 -27 -15 -52 -32 -52 -4 0 -8 40 -8 89 0 104 14 130 47 85
l19 -26 13 43 c12 41 25 58 44 59 4 0 7 -40 7 -88z m-150 -20 c0 -9 -9 -23
-20 -30 -17 -10 -20 -23 -20 -86 0 -56 -4 -75 -15 -80 -12 -4 -15 7 -15 65 0
66 -1 70 -20 64 -15 -5 -20 -2 -20 13 0 13 16 29 43 46 50 30 67 32 67 8z
m-130 -146 c0 -71 -3 -95 -14 -99 -19 -7 -26 1 -26 31 0 42 -25 18 -30 -29 -4
-31 -10 -45 -22 -47 -16 -3 -18 6 -18 85 0 56 4 93 12 101 20 20 28 14 28 -19
0 -42 24 -33 28 12 4 34 17 59 33 59 5 0 9 -42 9 -94z"/>
<path d="M1910 4089 c0 -12 29 -38 43 -39 4 0 0 11 -9 25 -17 26 -34 33 -34
14z"/>
<path d="M4225 3990 c-4 -6 -2 -17 4 -23 15 -15 25 -2 13 19 -7 12 -11 13 -17
4z"/>
<path d="M4262 3956 c1 -10 8 -17 13 -17 15 1 12 24 -3 29 -9 3 -13 -2 -10
-12z"/>
<path d="M4302 3934 c1 -9 9 -19 16 -22 9 -3 13 2 10 14 -1 9 -9 19 -16 22 -9
3 -13 -2 -10 -14z"/>
<path d="M705 3397 l-280 -162 0 -170 0 -170 40 -22 41 -22 284 164 285 164 3
170 2 171 -32 20 c-18 11 -40 20 -48 19 -8 0 -141 -73 -295 -162z m241 -117
c19 0 18 -39 -1 -46 -8 -4 -15 -18 -15 -34 0 -16 -7 -30 -15 -34 -10 -4 -15 1
-15 15 0 15 -5 19 -15 15 -11 -4 -15 1 -15 18 0 13 7 26 15 30 9 3 15 18 15
35 0 33 23 49 28 19 2 -10 10 -18 18 -18z m-136 -51 c0 -15 5 -19 15 -15 26 9
30 -23 6 -45 -11 -11 -21 -30 -21 -43 0 -13 -7 -26 -15 -30 -11 -4 -15 1 -15
19 0 18 -4 23 -15 19 -10 -4 -15 0 -15 15 0 12 7 24 15 27 8 4 15 18 15 33 0
15 3 31 7 34 13 13 23 7 23 -14z m-90 -24 c19 -23 4 -48 -25 -41 -30 8 -48
-20 -43 -66 4 -39 25 -48 37 -15 12 30 41 44 41 19 0 -52 -79 -115 -101 -81
-14 22 -10 117 6 149 24 47 62 62 85 35z"/>
<path d="M4590 3336 c0 -9 5 -16 10 -16 6 0 10 4 10 9 0 6 -4 13 -10 16 -5 3
-10 -1 -10 -9z"/>
<path d="M4620 3315 c0 -8 5 -15 10 -15 6 0 10 7 10 15 0 8 -4 15 -10 15 -5 0
-10 -7 -10 -15z"/>
<path d="M4652 3301 c2 -7 7 -12 11 -12 12 1 9 15 -3 20 -7 2 -11 -2 -8 -8z"/>
<path d="M936 2715 c-19 -14 -19 -15 6 -15 63 0 217 -84 309 -168 109 -100
160 -201 253 -502 89 -288 166 -429 260 -477 17 -9 25 -18 19 -20 -15 -5 464
-513 483 -513 8 0 14 6 14 13 0 7 -49 137 -109 289 -60 151 -112 285 -115 296
-6 16 1 26 30 46 l38 25 18 -29 c14 -24 25 -30 53 -30 35 0 97 21 121 41 9 7
8 25 -6 79 -15 58 -16 75 -6 105 7 19 15 37 17 40 3 3 27 -52 54 -123 92 -242
95 -252 76 -252 -5 0 -15 16 -21 35 -6 19 -15 35 -19 35 -4 0 -5 -16 -3 -35 6
-47 -15 -46 -24 1 -8 43 -31 55 -53 27 -29 -37 -89 -55 -141 -42 -12 3 -15 -9
-14 -75 1 -70 4 -82 24 -98 29 -24 78 -23 148 3 31 12 81 26 110 31 50 10 53
12 48 34 -5 20 -3 24 18 24 51 0 155 50 156 76 0 15 -142 508 -180 624 -52
159 -96 197 -215 187 -38 -4 -79 -9 -91 -12 -17 -6 -23 1 -38 40 -22 57 -54
79 -125 85 -53 5 -56 7 -61 35 -6 29 -6 28 -23 -21 -10 -28 -24 -96 -31 -150
-14 -114 -20 -127 -76 -178 -59 -53 -122 -78 -211 -84 l-77 -4 -42 127 c-81
242 -163 365 -308 456 -135 85 -220 109 -266 74z m1185 -1352 c54 -136 97
-249 95 -250 -2 -2 -94 92 -206 208 l-202 213 74 26 c40 14 87 33 103 42 17 9
32 14 34 12 2 -2 48 -115 102 -251z"/>
<path d="M1265 1664 c-8 -20 -15 -38 -15 -39 0 -2 -52 -135 -115 -295 -64
-160 -113 -295 -109 -301 3 -6 11 -9 18 -7 7 2 128 126 270 276 192 203 253
274 242 278 -12 4 -47 -26 -119 -102 -57 -60 -159 -168 -227 -241 -69 -72
-126 -130 -128 -129 -1 2 47 129 108 282 60 153 111 285 113 293 5 31 -23 20
-38 -15z"/>
<path d="M3810 1570 c0 -5 7 -7 15 -4 8 4 15 8 15 10 0 2 -7 4 -15 4 -8 0 -15
-4 -15 -10z"/>
<path d="M1640 1080 c0 -373 3 -471 13 -467 18 6 18 928 0 935 -10 3 -13 -95
-13 -468z"/>
<path d="M2680 1435 c0 -7 -7 -18 -16 -23 -8 -5 -21 -20 -28 -33 -9 -19 -18
-23 -41 -21 -17 2 -40 10 -51 17 -12 8 -24 12 -27 9 -5 -5 0 -104 9 -160 8
-58 76 -69 190 -30 38 12 92 26 119 30 81 11 139 34 178 70 32 29 37 40 37 79
0 36 -5 49 -22 61 -23 16 -111 22 -155 10 -20 -6 -20 -7 -5 -33 10 -18 13 -35
8 -47 -8 -17 -10 -16 -21 12 -8 17 -21 36 -30 44 -14 12 -15 10 -5 -14 14 -38
13 -56 -5 -56 -8 0 -15 9 -15 21 0 24 -17 59 -29 59 -5 0 -4 -13 2 -29 11 -30
3 -66 -13 -56 -5 3 -10 18 -10 33 0 32 -7 43 -37 60 -29 15 -33 15 -33 -3z"/>
</g>
</svg>
